<svg width="67" height="16" viewBox="0 0 67 16" fill="none" xmlns="http://www.w3.org/2000/svg">
<path d="M1.62695 7C1.07467 7 0.626953 7.44772 0.626953 8C0.626953 8.55228 1.07467 9 1.62695 9L1.62695 7ZM66.3341 8.70711C66.7246 8.31659 66.7246 7.68342 66.3341 7.2929L59.9701 0.928937C59.5796 0.538413 58.9464 0.538413 58.5559 0.928937C58.1654 1.31946 58.1654 1.95263 58.5559 2.34315L64.2127 8.00001L58.5559 13.6569C58.1654 14.0474 58.1654 14.6805 58.5559 15.0711C58.9464 15.4616 59.5796 15.4616 59.9701 15.0711L66.3341 8.70711ZM1.62695 9L65.627 9.00001L65.627 7.00001L1.62695 7L1.62695 9Z" fill="#666666"/>
</svg>
