<svg width="390" height="143" viewBox="0 0 390 143" fill="none" xmlns="http://www.w3.org/2000/svg">
<path d="M318.239 37.813L318.339 37.8289L315.401 39.6943L316.543 41.3645L321.12 38.4586L325.815 41.2736L326.912 39.5754L323.908 37.7748L327.214 38.2415L327.398 37.0305L327.526 37.0044L327.452 36.672L327.515 36.2626L327.358 36.2404L327.096 35.0478L323.748 35.7308L321.209 35.3724L318.257 35.789L315.218 35.3066L315.058 36.2407L314.896 36.2636L314.971 36.7545L314.971 36.7584L314.965 36.7867L314.881 37.2801L315.055 37.3077L315.197 38.2425L318.239 37.813Z" fill="#191919"/>
<path d="M290.596 31.399L302.907 33.3528L302.569 35.3262L290.259 33.3724L290.596 31.399Z" fill="#191919"/>
<path d="M339.299 32.5582L351.503 30.0686L351.933 32.0253L339.729 34.5149L339.299 32.5582Z" fill="#191919"/>
<path d="M265.974 27.4913L278.285 29.4451L277.948 31.4185L265.637 29.4647L265.974 27.4913Z" fill="#191919"/>
<path d="M363.707 27.579L375.91 25.0894L376.34 27.0461L364.137 29.5357L363.707 27.579Z" fill="#191919"/>
<path d="M241.352 23.5836L253.663 25.5375L253.326 27.5109L241.015 25.5571L241.352 23.5836Z" fill="#191919"/>
<path d="M388.114 22.5999L400.318 20.1103L400.748 22.0669L388.544 24.5565L388.114 22.5999Z" fill="#191919"/>
<path d="M216.73 19.676L229.041 21.6298L228.704 23.6032L216.393 21.6494L216.73 19.676Z" fill="#191919"/>
<path d="M192.108 15.7683L204.419 17.7221L204.082 19.6956L191.77 17.7417L192.108 15.7683Z" fill="#191919"/>
<path d="M412.521 17.6207L424.725 15.1311L425.155 17.0878L412.951 19.5774L412.521 17.6207Z" fill="#191919"/>
<path d="M436.929 12.6415L449.132 10.1519L449.562 12.1086L437.359 14.5982L436.929 12.6415Z" fill="#191919"/>
<path d="M461.336 7.66238L473.54 5.17279L473.969 7.12943L461.766 9.61902L461.336 7.66238Z" fill="#191919"/>
<path d="M485.743 2.6832L497.947 0.193634L498.377 2.15027L486.173 4.63983L485.743 2.6832Z" fill="#191919"/>
<path d="M351.836 41.7176L339.525 39.9796L339.826 38.0007L352.137 39.7387L351.836 41.7176Z" fill="#191919"/>
<path d="M302.886 39.9805L290.575 41.7185L290.274 39.7397L302.585 38.0016L302.886 39.9805Z" fill="#191919"/>
<path d="M376.458 45.1936L364.147 43.4556L364.448 41.4767L376.759 43.2148L376.458 45.1936Z" fill="#191919"/>
<path d="M278.264 43.4565L265.953 45.1946L265.652 43.2157L277.963 41.4777L278.264 43.4565Z" fill="#191919"/>
<path d="M401.08 48.6697L388.769 46.9316L389.07 44.9528L401.381 46.6908L401.08 48.6697Z" fill="#191919"/>
<path d="M253.642 46.9326L241.331 48.6706L241.03 46.6917L253.341 44.9537L253.642 46.9326Z" fill="#191919"/>
<path d="M425.703 52.1458L413.392 50.4077L413.692 48.4288L426.004 50.1669L425.703 52.1458Z" fill="#191919"/>
<path d="M229.02 50.4086L216.709 52.1467L216.408 50.1678L228.719 48.4297L229.02 50.4086Z" fill="#191919"/>
<path d="M450.325 55.6218L438.014 53.8838L438.315 51.9049L450.625 53.6429L450.325 55.6218Z" fill="#191919"/>
<path d="M204.398 53.8846L192.087 55.6227L191.786 53.6438L204.097 51.9058L204.398 53.8846Z" fill="#191919"/>
<path d="M474.947 59.0979L462.636 57.3599L462.937 55.381L475.248 57.119L474.947 59.0979Z" fill="#191919"/>
<path d="M179.776 57.3607L167.465 59.0987L167.164 57.1198L179.475 55.3818L179.776 57.3607Z" fill="#191919"/>
<path d="M499.569 62.5739L487.258 60.8359L487.559 58.8571L499.87 60.595L499.569 62.5739Z" fill="#191919"/>
<path d="M155.154 60.8367L142.843 62.5747L142.542 60.5959L154.853 58.8578L155.154 60.8367Z" fill="#191919"/>
<path d="M130.532 64.3127L118.221 66.0508L117.92 64.0719L130.231 62.3339L130.532 64.3127Z" fill="#191919"/>
<path d="M105.91 67.7888L93.5989 69.5268L93.2982 67.5479L105.609 65.8099L105.91 67.7888Z" fill="#191919"/>
<path d="M81.288 71.2648L68.9771 73.0028L68.6764 71.0239L80.9873 69.2859L81.288 71.2648Z" fill="#191919"/>
<path d="M56.6662 74.7408L44.3553 76.4788L44.0544 74.5L56.3652 72.762L56.6662 74.7408Z" fill="#191919"/>
<path d="M32.0442 78.2169L19.7333 79.9549L19.4323 77.976L31.7432 76.238L32.0442 78.2169Z" fill="#191919"/>
<path d="M7.42212 81.6929L-4.88873 83.4309L-5.18945 81.452L7.1214 79.7141L7.42212 81.6929Z" fill="#191919"/>
<path d="M-17.1996 85.1689L-29.5108 86.907L-29.8115 84.9281L-17.5004 83.1901L-17.1996 85.1689Z" fill="#191919"/>
<path d="M-41.8217 88.645L-54.1326 90.383L-54.4336 88.4041L-42.1227 86.6661L-41.8217 88.645Z" fill="#191919"/>
<path d="M-66.4435 92.121L-78.7546 93.859L-79.0554 91.8801L-66.7444 90.1421L-66.4435 92.121Z" fill="#191919"/>
<path d="M-91.0658 95.597L-103.377 97.3351L-103.677 95.3562L-91.3665 93.6182L-91.0658 95.597Z" fill="#191919"/>
<path d="M346.853 53.8865L336.334 47.58L337.43 45.8818L347.949 52.1883L346.853 53.8865Z" fill="#191919"/>
<path d="M306.278 47.8812L296.013 54.3978L294.871 52.7277L305.136 46.2111L306.278 47.8812Z" fill="#191919"/>
<path d="M367.89 66.4994L357.371 60.1929L358.468 58.4948L368.986 64.8012L367.89 66.4994Z" fill="#191919"/>
<path d="M285.748 60.9146L275.483 67.4312L274.341 65.761L284.606 59.2444L285.748 60.9146Z" fill="#191919"/>
<path d="M388.927 79.1122L378.409 72.8058L379.505 71.1077L390.024 77.4141L388.927 79.1122Z" fill="#191919"/>
<path d="M265.218 73.9479L254.953 80.4645L253.811 78.7944L264.076 72.2777L265.218 73.9479Z" fill="#191919"/>
<path d="M409.965 91.7252L399.446 85.4187L400.542 83.7205L411.061 90.027L409.965 91.7252Z" fill="#191919"/>
<path d="M244.688 86.9812L234.423 93.4979L233.281 91.8278L243.546 85.311L244.688 86.9812Z" fill="#191919"/>
<path d="M431.002 104.338L420.484 98.0316L421.58 96.3334L432.099 102.64L431.002 104.338Z" fill="#191919"/>
<path d="M224.158 100.015L213.893 106.531L212.752 104.861L223.017 98.3444L224.158 100.015Z" fill="#191919"/>
<path d="M452.04 116.951L441.521 110.645L442.617 108.946L453.136 115.253L452.04 116.951Z" fill="#191919"/>
<path d="M203.628 113.048L193.363 119.565L192.222 117.894L202.487 111.378L203.628 113.048Z" fill="#191919"/>
<path d="M473.077 129.564L462.558 123.257L463.655 121.559L474.174 127.866L473.077 129.564Z" fill="#191919"/>
<path d="M494.115 142.177L483.596 135.87L484.692 134.172L495.211 140.479L494.115 142.177Z" fill="#191919"/>
</svg>
