<svg width="267" height="57" viewBox="0 0 267 57" fill="none" xmlns="http://www.w3.org/2000/svg">
<path d="M17.6738 10.232C12.2978 10.232 8.45777 12.536 5.89777 15.736H5.64177V11H0.521771V55.8H5.64177V38.264H5.89777C8.45777 41.464 12.2978 43.768 17.6738 43.768C26.8898 43.768 33.5458 36.856 33.5458 27C33.5458 17.144 26.8898 10.232 17.6738 10.232ZM17.0338 39.16C10.3778 39.16 5.51377 34.168 5.51377 27C5.51377 19.832 10.3778 14.84 17.0338 14.84C23.6898 14.84 28.4258 19.832 28.4258 27C28.4258 34.168 23.6898 39.16 17.0338 39.16ZM56.6643 43.768C66.0083 43.768 73.3043 36.856 73.3043 27C73.3043 17.144 66.0083 10.232 56.6643 10.232C47.3203 10.232 40.0243 17.144 40.0243 27C40.0243 36.856 47.3203 43.768 56.6643 43.768ZM56.6643 39.16C50.0083 39.16 45.1443 34.168 45.1443 27C45.1443 19.832 50.0083 14.84 56.6643 14.84C63.3203 14.84 68.1843 19.832 68.1843 27C68.1843 34.168 63.3203 39.16 56.6643 39.16ZM95.3338 10.232C86.1178 10.232 79.4618 17.144 79.4618 27C79.4618 36.856 86.1178 43.768 95.3338 43.768C100.71 43.768 104.55 41.464 107.11 38.264H107.366V41.08C107.366 48.248 102.758 52.088 96.3578 52.088C91.3658 52.088 87.9098 49.784 86.2458 46.712H80.9978C82.9178 52.472 87.7818 56.568 96.3578 56.568C106.47 56.568 112.486 50.808 112.486 41.08V11H107.366V15.736H107.11C104.55 12.536 100.71 10.232 95.3338 10.232ZM95.9738 14.84C102.63 14.84 107.494 19.832 107.494 27C107.494 34.168 102.63 39.16 95.9738 39.16C89.3178 39.16 84.5818 34.168 84.5818 27C84.5818 19.832 89.3178 14.84 95.9738 14.84ZM137.724 43.768C144.636 43.768 150.524 39.928 152.956 33.656H147.452C145.66 37.112 142.076 39.288 137.724 39.288C131.772 39.288 127.228 35.128 126.46 28.92H153.596C153.596 28.92 153.724 27.896 153.724 26.616C153.724 16.76 146.94 10.232 137.724 10.232C128.508 10.232 121.212 17.144 121.212 27C121.212 36.856 128.38 43.768 137.724 43.768ZM126.524 24.44C127.548 18.552 131.964 14.712 137.724 14.712C143.484 14.712 147.516 18.552 148.476 24.44H126.524ZM175.867 43H188.795V38.264H176.635C172.795 38.264 171.515 36.984 171.515 33.144V15.608H188.795V11H171.515V0.119999H166.395V11H158.075V15.608H166.395V33.528C166.395 40.184 169.211 43 175.867 43ZM211.352 43.768C220.696 43.768 227.992 36.856 227.992 27C227.992 17.144 220.696 10.232 211.352 10.232C202.008 10.232 194.712 17.144 194.712 27C194.712 36.856 202.008 43.768 211.352 43.768ZM211.352 39.16C204.696 39.16 199.832 34.168 199.832 27C199.832 19.832 204.696 14.84 211.352 14.84C218.008 14.84 222.872 19.832 222.872 27C222.872 34.168 218.008 39.16 211.352 39.16ZM236.709 43H241.829V26.616C241.829 19.192 246.693 14.84 252.197 14.84C256.421 14.84 261.029 17.4 261.029 23.8V43H266.149V23.416C266.149 14.712 260.261 10.232 253.221 10.232C247.845 10.232 244.261 12.792 242.085 15.736H241.829V11H236.709V43Z" fill="#F9F9F9"/>
</svg>
