<svg width="16" height="16" viewBox="0 0 16 16" fill="none" xmlns="http://www.w3.org/2000/svg">
<circle cx="8" cy="8" r="8" fill="black"/>
<path d="M11.6425 5.97019L11.6328 5.88793C11.6256 5.83375 11.6164 5.77892 11.6067 5.72669C11.6027 5.69928 11.5975 5.67317 11.5916 5.64575C11.5858 5.61833 11.576 5.57198 11.5662 5.53543C11.5564 5.49887 11.5486 5.46427 11.5381 5.42903C11.529 5.39704 11.5192 5.36374 11.5101 5.33698C11.5009 5.31022 11.4918 5.27693 11.4814 5.24625C11.4814 5.24625 11.4814 5.24625 11.4814 5.24103C11.4716 5.21164 11.4605 5.18227 11.4487 5.15355C11.437 5.12483 11.4259 5.09284 11.4135 5.06412C11.407 5.04519 11.3992 5.02821 11.3913 5.00994C11.3835 4.99166 11.3821 4.9897 11.3763 4.9786L11.3632 4.94792C11.3398 4.89766 11.3124 4.84217 11.2928 4.80366C11.2784 4.77559 11.2635 4.74687 11.2478 4.7188C10.9578 4.19639 10.5334 3.76115 10.0185 3.45827C10.0047 3.44979 9.98973 3.44325 9.97604 3.43412C9.37251 3.09164 8.67724 2.94612 7.98713 3.01786C7.29702 3.08959 6.64648 3.375 6.12624 3.83427C6.11384 3.84602 6.1021 3.85581 6.08971 3.86692C5.82026 4.11128 5.59238 4.3979 5.41501 4.71553C5.3987 4.7436 5.38434 4.77233 5.36933 4.8004C5.35041 4.83891 5.32301 4.89439 5.29952 4.94401C5.2943 4.95511 5.29039 4.9649 5.28582 4.97534C5.28125 4.98579 5.27538 4.99753 5.27081 5.00733C5.26624 5.01712 5.2558 5.04258 5.24928 5.06086C5.23623 5.08958 5.22513 5.12026 5.21339 5.15029C5.20164 5.18031 5.1912 5.20838 5.18076 5.23776C5.18076 5.23776 5.18076 5.24168 5.18076 5.24299C5.17032 5.27366 5.16119 5.30304 5.15205 5.33372C5.14291 5.3644 5.13313 5.39377 5.12399 5.42576C5.11355 5.46101 5.10442 5.49691 5.09529 5.53217C5.08615 5.56741 5.07832 5.60528 5.07049 5.64249C5.06266 5.67969 5.0594 5.69601 5.05548 5.72343C5.0457 5.77565 5.03656 5.83049 5.02938 5.88467L5.0196 5.96692C5.00614 6.08721 4.9996 6.20817 5.00002 6.32921V12.7918C5.00002 12.847 5.02195 12.9 5.06098 12.939C5.10002 12.9781 5.15296 13 5.20817 13C5.23555 13.0002 5.2627 12.9949 5.28803 12.9846C5.31335 12.9741 5.33634 12.9587 5.35563 12.9393C5.39464 12.9001 5.41666 12.8471 5.41697 12.7918V10.5259C5.41723 10.3817 5.45488 10.2398 5.52623 10.1145C5.59759 9.9891 5.70021 9.88431 5.82411 9.81035C5.948 9.73647 6.08893 9.69598 6.23313 9.69281C6.37734 9.68956 6.51991 9.72389 6.64694 9.7922L6.68936 9.81574C7.29286 10.1582 7.98815 10.3037 8.67827 10.232C9.3684 10.1602 10.0189 9.8749 10.5392 9.41561C10.5515 9.4038 10.5633 9.39404 10.5757 9.3836L10.5862 9.37384L10.5757 9.38428C10.6496 9.3247 10.7418 9.29268 10.8367 9.29354C10.9454 9.29345 11.0498 9.33617 11.1274 9.41236C11.205 9.48846 11.2496 9.59214 11.2516 9.70086C11.2425 10.4349 10.9574 11.1384 10.453 11.6715C9.94866 12.2046 9.26212 12.5281 8.53006 12.5777C8.47711 12.5803 8.42721 12.6034 8.39075 12.6419C8.3543 12.6804 8.33409 12.7315 8.33433 12.7846C8.33433 12.8401 8.3563 12.8932 8.39544 12.9325C8.43458 12.9718 8.48769 12.994 8.54315 12.9942H8.55616C9.11246 12.9573 9.65061 12.7813 10.1213 12.4823C10.5921 12.1835 10.9802 11.7711 11.2504 11.2832C11.2939 11.2087 11.3323 11.1324 11.3659 11.0541C11.3711 11.0443 11.375 11.0338 11.3796 11.024C11.5695 10.5968 11.6673 10.1345 11.6667 9.66687V6.33248C11.6656 6.21135 11.6575 6.09039 11.6425 5.97019ZM10.8288 6.91477C10.8292 7.22449 10.7717 7.53157 10.6592 7.82015C10.4386 8.3849 10.0216 8.85095 9.48469 9.13225L9.45602 9.14732C9.11203 9.32153 8.73227 9.41339 8.34673 9.41561H8.31541C7.9299 9.41364 7.55014 9.32204 7.20614 9.14792L7.17678 9.13294C6.77129 8.92115 6.43152 8.60234 6.19433 8.21112C5.95714 7.81981 5.83159 7.37105 5.83132 6.91348V6.33117C5.83198 5.67071 6.0935 5.03729 6.55892 4.56887C7.02432 4.10045 7.65589 3.835 8.31606 3.83035H8.34738C9.00755 3.83467 9.63915 4.10004 10.1044 4.56857C10.5697 5.0371 10.8308 5.67073 10.8308 6.33117L10.8288 6.91477Z" fill="white"/>
</svg>
