<svg width="90" height="29" viewBox="0 0 90 29" fill="none" xmlns="http://www.w3.org/2000/svg">
<path d="M1.29211 26.9989C0.739827 26.9989 0.292112 27.4466 0.292112 27.9989C0.292112 28.5512 0.739827 28.9989 1.29211 28.9989L1.29211 26.9989ZM81.9299 27.9989L81.9299 28.9989L82.9299 28.9989L82.9299 27.9989L81.9299 27.9989ZM82.637 0.791917C82.2465 0.401392 81.6133 0.401392 81.2228 0.791917L74.8588 7.15588C74.4683 7.5464 74.4683 8.17957 74.8588 8.57009C75.2493 8.96061 75.8825 8.96061 76.273 8.57009L81.9299 2.91324L87.5867 8.57009C87.9773 8.96062 88.6104 8.96062 89.001 8.57009C89.3915 8.17957 89.3915 7.5464 89.001 7.15588L82.637 0.791917ZM1.29211 28.9989L81.9299 28.9989L81.9299 26.9989L1.29211 26.9989L1.29211 28.9989ZM82.9299 27.9989L82.9299 1.49902L80.9299 1.49902L80.9299 27.9989L82.9299 27.9989Z" fill="#F9F9F9"/>
</svg>
