<svg width="48" height="48" viewBox="0 0 48 48" fill="none" xmlns="http://www.w3.org/2000/svg">
<g clip-path="url(#clip0_420_1119)">
<path d="M31.5 15H43.5" stroke="#EEEEEE" stroke-width="2" stroke-linecap="round" stroke-linejoin="round"/>
<path d="M30 28.5008H45C44.9968 26.7707 44.3942 25.0952 43.2945 23.7595C42.1949 22.4238 40.6664 21.5106 38.9691 21.1751C37.2719 20.8397 35.5108 21.103 33.9858 21.92C32.4608 22.737 31.2661 24.0573 30.6051 25.6562C29.9441 27.255 29.8576 29.0335 30.3605 30.6889C30.8633 32.3443 31.9244 33.7742 33.363 34.7353C34.8016 35.6963 36.5288 36.1291 38.2506 35.9598C39.9724 35.7906 41.5823 35.0298 42.8063 33.8071" stroke="#EEEEEE" stroke-width="2" stroke-linecap="round" stroke-linejoin="round"/>
<path d="M6 23.25H18.375C20.0658 23.25 21.6873 23.9217 22.8828 25.1172C24.0784 26.3127 24.75 27.9342 24.75 29.625C24.75 31.3158 24.0784 32.9373 22.8828 34.1328C21.6873 35.3283 20.0658 36 18.375 36H6V12H16.125C17.6168 12 19.0476 12.5926 20.1025 13.6475C21.1574 14.7024 21.75 16.1332 21.75 17.625C21.75 19.1168 21.1574 20.5476 20.1025 21.6025C19.0476 22.6574 17.6168 23.25 16.125 23.25" stroke="#EEEEEE" stroke-width="2" stroke-linecap="round" stroke-linejoin="round"/>
</g>
<defs>
<clipPath id="clip0_420_1119">
<rect width="48" height="48" fill="white"/>
</clipPath>
</defs>
</svg>
