<svg width="48" height="48" viewBox="0 0 48 48" fill="none" xmlns="http://www.w3.org/2000/svg">
<g clip-path="url(#clip0_420_1107)">
<path d="M16.5012 25.2928L33.3574 40.1241C33.5522 40.2965 33.7885 40.4154 34.0431 40.4689C34.2978 40.5224 34.5619 40.5088 34.8097 40.4293C35.0574 40.3499 35.2802 40.2074 35.4563 40.0158C35.6323 39.8242 35.7555 39.5902 35.8137 39.3366L42.8637 8.54908C42.9228 8.28394 42.9088 8.00772 42.8232 7.74991C42.7376 7.4921 42.5835 7.26238 42.3776 7.08527C42.1716 6.90817 41.9214 6.79032 41.6536 6.74432C41.3859 6.69832 41.1107 6.72589 40.8574 6.82408L6.24492 20.4178C4.85742 20.9616 5.04492 22.9866 6.50742 23.2866L16.5012 25.2928Z" stroke="#EEEEEE" stroke-width="2" stroke-linecap="round" stroke-linejoin="round"/>
<path d="M16.5 25.2945L42.0188 6.86328" stroke="#EEEEEE" stroke-width="2" stroke-linecap="round" stroke-linejoin="round"/>
<path d="M24.9187 32.6992L19.0687 38.5492C18.86 38.7611 18.5931 38.9062 18.3017 38.9661C18.0103 39.0259 17.7078 38.9977 17.4324 38.8852C17.1571 38.7727 16.9215 38.5808 16.7554 38.334C16.5894 38.0872 16.5005 37.7967 16.5 37.4992V25.293" stroke="#EEEEEE" stroke-width="2" stroke-linecap="round" stroke-linejoin="round"/>
</g>
<defs>
<clipPath id="clip0_420_1107">
<rect width="48" height="48" fill="white"/>
</clipPath>
</defs>
</svg>
